<?xml version="1.0" encoding="UTF-8" standalone="no"?>
<svg version="1.1" width="308.7612359841165" height="304.915625" viewBox="0 0 2000.000000 1500.000000" id="svg23" class="css-1j8o68f"
    xmlns:inkscape="http://www.inkscape.org/namespaces/inkscape"
    xmlns:sodipodi="http://sodipodi.sourceforge.net/DTD/sodipodi-0.dtd"
    xmlns="http://www.w3.org/2000/svg"
    xmlns:svg="http://www.w3.org/2000/svg">
    <sodipodi:namedview id="namedview25" pagecolor="#ffffff" bordercolor="#000000" borderopacity="0.25" inkscape:showpageshadow="2" inkscape:pageopacity="0.0" inkscape:pagecheckerboard="0" inkscape:deskcolor="#d1d1d1" />
    <defs id="SvgjsDefs2684" />


    <g featurekey="rootContainer" transform="translate(0.000000, 1500.000000) scale(0.100000,-0.100000)" fill="#ff4a3f">
        <path d="M9760 11981 c-336 -126 -493 -198 -640 -296 l-79 -54 2 97 2 97 -27
3 c-21 3 -44 -13 -120 -85 -190 -179 -224 -199 -316 -184 -114 18 -240 -21
-349 -107 -59 -47 -133 -146 -159 -212 -9 -25 -24 -51 -32 -57 -19 -16 -109
-17 -241 -2 -149 16 -177 5 -327 -123 -187 -160 -712 -685 -739 -738 -12 -25
-34 -81 -49 -126 -15 -45 -39 -101 -55 -125 -41 -65 -145 -175 -325 -344 -300
-283 -364 -360 -456 -549 -66 -135 -108 -256 -145 -420 -23 -105 -38 -194
-116 -683 l-32 -203 66 -127 c99 -194 152 -318 212 -496 84 -251 126 -482 93
-515 -7 -7 -31 -12 -55 -12 l-43 0 -1 -62 c-1 -129 3 -204 13 -248 14 -58 78
-212 272 -649 176 -397 254 -586 331 -805 l52 -150 51 -22 c69 -31 103 -85
127 -201 60 -305 187 -516 372 -620 102 -57 173 -72 343 -73 198 0 257 -17
355 -100 66 -54 212 -124 302 -144 40 -9 106 -16 147 -16 l75 0 248 -129 c245
-127 387 -206 471 -263 46 -32 76 -32 106 -2 25 25 36 7 36 -60 l0 -62 143 17
c261 32 438 42 669 36 225 -5 329 -17 482 -57 75 -19 83 -19 155 -5 125 26
255 -6 424 -105 51 -30 81 -40 116 -41 65 -3 75 5 67 53 l-6 39 54 25 c65 29
317 87 343 78 10 -4 52 -42 93 -85 95 -100 110 -102 110 -14 0 135 32 165 172
165 l98 0 0 69 c0 38 5 82 10 96 10 25 100 124 280 306 41 41 97 88 124 104
l50 29 68 -74 68 -75 0 35 c0 49 -39 126 -94 187 -26 29 -46 60 -44 69 2 12
31 26 84 45 126 42 151 44 206 16 l47 -24 -15 29 c-35 68 21 106 173 117 104
8 107 9 133 40 30 35 50 92 50 141 0 26 20 56 113 167 327 393 541 763 756
1311 21 52 21 53 1 42 -47 -25 -213 -197 -269 -280 -86 -126 -120 -149 -168
-115 -22 15 -23 14 -49 -72 -35 -116 -47 -127 -38 -35 3 39 4 72 1 72 -3 0
-77 -55 -164 -123 -425 -331 -871 -656 -1243 -906 -240 -160 -326 -211 -363
-211 -35 0 -83 30 -103 65 l-20 34 -58 -49 c-92 -79 -136 -76 -136 9 l0 36
-67 2 c-75 3 -88 -4 -110 -59 -8 -21 -21 -38 -28 -38 -7 0 -23 17 -36 37 l-22
38 -8 -35 c-4 -19 -10 -57 -14 -85 l-8 -50 -12 35 c-17 48 -39 41 -86 -30
l-16 -24 -41 60 c-57 81 -86 115 -77 89 3 -10 9 -38 12 -61 6 -48 -9 -65 -36
-40 -18 16 -19 14 -23 -41 -4 -46 -9 -60 -29 -72 -13 -9 -49 -39 -80 -67 l-56
-51 -89 -7 c-128 -10 -274 -33 -391 -61 l-103 -25 -142 35 c-272 65 -522 104
-850 135 -234 22 -296 31 -408 62 -95 26 -260 96 -364 155 -128 72 -124 68
-82 88 46 22 76 64 76 107 -1 27 -2 30 -11 15 -15 -26 -60 -46 -145 -63 l-76
-16 -37 34 c-20 18 -88 82 -151 143 -161 154 -254 241 -415 390 -441 407 -816
791 -917 939 -50 73 -104 187 -198 421 -63 158 -95 232 -105 243 -2 2 -15 -4
-29 -13 -35 -23 -67 -15 -93 24 -43 64 -42 138 2 167 22 14 27 14 55 0 l31
-15 -5 27 c-23 117 -87 617 -84 658 3 34 22 87 57 162 l53 112 63 573 c85 762
113 888 270 1212 183 377 399 632 1015 1196 156 143 181 162 305 234 55 32
192 113 305 180 418 250 625 354 869 435 274 91 466 120 794 120 124 0 239 5
260 11 92 25 127 92 127 244 l0 75 -51 0 c-60 0 -73 7 -160 76 -67 54 -124 85
-156 83 -10 0 -88 -27 -173 -58z m-3452 -5739 c11 -15 42 -77 68 -137 26 -61
58 -127 71 -147 27 -45 17 -48 -42 -13 -54 31 -72 60 -84 133 -5 33 -23 87
-40 121 -37 71 -36 71 -12 71 11 0 29 -13 39 -28z m-99 -79 c16 -54 28 -99 27
-101 -2 -2 -32 31 -66 73 -61 74 -62 76 -46 100 9 14 25 25 35 25 16 0 25 -19
50 -97z"/>
        <path d="M11174 11736 c-30 -13 -64 -53 -77 -88 -6 -16 -9 -16 -41 -3 -42 18
-221 20 -278 5 -78 -22 -130 -90 -130 -170 0 -63 29 -116 102 -183 116 -107
312 -182 510 -193 92 -6 98 -8 195 -62 249 -138 560 -345 1078 -715 525 -375
469 -340 532 -335 34 3 81 18 128 41 42 20 81 37 86 37 7 0 11 -32 11 -87 0
-110 24 -212 89 -379 52 -133 95 -199 159 -245 137 -98 181 -151 207 -250 20
-72 18 -179 -4 -263 -18 -68 -18 -70 2 -115 31 -72 126 -231 173 -293 24 -31
81 -91 128 -135 83 -78 83 -78 89 -136 6 -63 28 -107 53 -107 9 0 31 15 50 34
l34 34 0 -31 c0 -18 -7 -86 -16 -152 -17 -129 -20 -388 -6 -445 7 -30 9 -22
16 59 19 247 72 543 129 724 19 59 31 107 27 107 -11 0 -63 -61 -86 -98 -16
-29 -61 -58 -72 -48 -2 3 -6 74 -8 158 -5 209 -18 359 -65 730 l-39 316 -458
733 -457 733 -135 137 c-316 319 -715 540 -1205 666 -94 24 -117 26 -395 30
-238 3 -301 1 -326 -11z"/>
        <path d="M8082 9497 l-502 -502 0 -1495 0 -1495 503 -503 502 -502 1043 0
1042 0 0 495 0 495 -715 0 -715 0 0 2005 0 2005 -328 0 -327 0 -503 -503z"/>
        <path d="M9510 9505 l0 -495 618 -2 617 -3 3 -252 2 -253 830 0 830 0 0 248 0
248 -437 502 -438 501 -1012 1 -1013 0 0 -495z"/>
        <path d="M10130 7280 l0 -490 405 0 405 0 0 -895 0 -895 735 0 735 0 0 1385 0
1385 -1140 0 -1140 0 0 -490z"/>
    </g>
</svg>
